# xmcd
#
# Track frame offsets:
#  150
#  28276
#  42314
#  55582
#  74734
#  88169
#  102167
#  115048
#  133105
#  147007
#  176898
#  203826
#  215022
#  226366
#  241259
#  264789
#  278157
#  289929
#  304224
#
# Disc length: 4243 seconds
#
# Revision: 1
# Processed by: cddbd v1.5.1PL2 Copyright (c) Steve Scherf et al.
# Submitted via: Collectorz.com_Music_Collector 6.10
#
DISCID=23109113
DTITLE=Compilation Jazz - Le Jazz De Cabu [CD1)
DYEAR=2005
DGENRE=Jazz
TTITLE0=Louis Amstrong - New Orleans Functiun
TTITLE1=Louis Amstrong - C'est Si Bon
TTITLE2=Sidney Bechet - Skake It And Brake It
TTITLE3=Sidney Bechet - Lazy River
TTITLE4=Bessie Smith - On Revival Day
TTITLE5=Bessie Smith - Nobody Knows You When You're Down And Out
TTITLE6=Fats Waller - The Sheik Of Araby
TTITLE7=Fats Waller - Ain't Misbehaving
TTITLE8=Duke Ellington - Harlem Air Shaft
TTITLE9=Duke Ellington - The Mooche
TTITLE10=Mahalia Jackson - In The Upper Room
TTITLE11=Mahalia Jackson - Nobody Knows The Trouble I've Seen
TTITLE12=Stephane Grapelli - Dinah
TTITLE13=Stephane Grapelli - Stephen's Blues
TTITLE14=Coleman Hawkins - The Man I love
TTITLE15=Coleman Hawkins - April In Paris
TTITLE16=Billie Holiday - Love Me Or Leave Me
TTITLE17=Billie Holiday - Rocky Mountain Blues
TTITLE18=Django Reinhard - It Don't Mean A Thing If It Ain't Got That Swing
EXTD=
EXTT0=
EXTT1=
EXTT2=
EXTT3=
EXTT4=
EXTT5=
EXTT6=
EXTT7=
EXTT8=
EXTT9=
EXTT10=
EXTT11=
EXTT12=
EXTT13=
EXTT14=
EXTT15=
EXTT16=
EXTT17=
EXTT18=
PLAYORDER=
